# xmcd
#
# Track frame offsets: 
#        225
#        22943
#        39149
#        54125
#        70744
#        88266
#        109249
#        123870
#        145033
#        161780
#        179383
#
# Disc length: 2619 seconds
#
# Revision: 17
# Processed by: cddbd v1.5.2PL0 Copyright (c) Steve Scherf et al.
# Submitted via: ExactAudioCopyFreeDBPlugin 1.0
#
DISCID=870a380b
DTITLE=Zucchero Sugar Fornaciari - Chocabeck
DYEAR=2010
DGENRE=Pop-Folk
TTITLE0=Un Soffio Caldo
TTITLE1=Il Suono Della Domenica
TTITLE2=Soldati Nella Mia Città
TTITLE3=E Un Peccato Morir
TTITLE4=Vedo Nero
TTITLE5=Oltre Le Rive
TTITLE6=Un Uovo Sodo
TTITLE7=Chocabeck
TTITLE8=Alla Fine
TTITLE9=Spicinfrin Boy
TTITLE10=God Bless The Child
EXTD=YEAR: 2010
EXTT0=
EXTT1=
EXTT2=
EXTT3=
EXTT4=
EXTT5=
EXTT6=
EXTT7=
EXTT8=
EXTT9=
EXTT10=
PLAYORDER=
